HIERARCHY
ROOT Hips
{
  OFFSET 26.100 25.894 -223.601
  CHANNELS 6 Xposition Yposition Zposition Zrotation Xrotation Yrotation
  JOINT LeftUpLeg
  {
    OFFSET 7.954 -6.915 2.921
    CHANNELS 6 Xposition Yposition Zposition Zrotation Xrotation Yrotation
    JOINT LeftLeg
    {
      OFFSET -0.000 -47.460 0.000
      CHANNELS 6 Xposition Yposition Zposition Zrotation Xrotation Yrotation
      JOINT LeftFoot
      {
        OFFSET -0.000 -40.255 -0.000
        CHANNELS 6 Xposition Yposition Zposition Zrotation Xrotation Yrotation
        End Site
        {
          OFFSET 0.000 -8.266 4.772
        }
      }
    }
  }
  JOINT RightUpLeg
  {
    OFFSET -7.787 -7.224 2.826
    CHANNELS 6 Xposition Yposition Zposition Zrotation Xrotation Yrotation
    JOINT RightLeg
    {
      OFFSET 0.000 -48.348 0.000
      CHANNELS 6 Xposition Yposition Zposition Zrotation Xrotation Yrotation
      JOINT RightFoot
      {
        OFFSET -0.000 -40.904 -0.000
        CHANNELS 6 Xposition Yposition Zposition Zrotation Xrotation Yrotation
        End Site
        {
          OFFSET 0.000 -8.003 4.620
        }
      }
    }
  }
  JOINT Spine
  {
    OFFSET 0.000 5.820 -5.820
    CHANNELS 6 Xposition Yposition Zposition Zrotation Xrotation Yrotation
    JOINT LeftShoulder
    {
      OFFSET -0.000 39.427 0.000
      CHANNELS 6 Xposition Yposition Zposition Zrotation Xrotation Yrotation
      JOINT LeftArm
      {
        OFFSET 21.232 0.000 -0.000
        CHANNELS 6 Xposition Yposition Zposition Zrotation Xrotation Yrotation
        JOINT LeftForeArm
        {
          OFFSET 23.471 0.000 0.000
          CHANNELS 6 Xposition Yposition Zposition Zrotation Xrotation Yrotation
          JOINT LeftHand
          {
            OFFSET 26.271 -0.000 -0.000
            CHANNELS 6 Xposition Yposition Zposition Zrotation Xrotation Yrotation
            JOINT LeftHandThumb1
            {
            OFFSET 4.970 -0.620 3.390
            CHANNELS 6 Xposition Yposition Zposition Zrotation Xrotation Yrotation
              JOINT LeftHandThumb2
              {
              OFFSET 2.150 -0.000 0.000
              CHANNELS 6 Xposition Yposition Zposition Zrotation Xrotation Yrotation
                JOINT LeftHandThumb3
                {
                OFFSET 2.200 -0.000 0.000
                CHANNELS 6 Xposition Yposition Zposition Zrotation Xrotation Yrotation
                  JOINT LeftHandThumb4
                  {
                  OFFSET 1.700 -0.000 0.000
                  CHANNELS 6 Xposition Yposition Zposition Zrotation Xrotation Yrotation
                  }
                }
              }
            }
            JOINT LeftHandIndex1
            {
            OFFSET 8.730 0.680 2.070
            CHANNELS 6 Xposition Yposition Zposition Zrotation Xrotation Yrotation
              JOINT LeftHandIndex2
              {
              OFFSET 2.670 -0.000 0.000
              CHANNELS 6 Xposition Yposition Zposition Zrotation Xrotation Yrotation
                JOINT LeftHandIndex3
                {
                OFFSET 2.130 -0.000 0.000
                CHANNELS 6 Xposition Yposition Zposition Zrotation Xrotation Yrotation
                  JOINT LeftHandIndex4
                  {
                  OFFSET 1.800 -0.000 0.000
                  CHANNELS 6 Xposition Yposition Zposition Zrotation Xrotation Yrotation
                  }
                }
              }
            }
            JOINT LeftHandMiddle1
            {
            OFFSET 9.220 0.670 0.550
            CHANNELS 6 Xposition Yposition Zposition Zrotation Xrotation Yrotation
              JOINT LeftHandMiddle2
              {
              OFFSET 2.660 -0.000 0.000
              CHANNELS 6 Xposition Yposition Zposition Zrotation Xrotation Yrotation
                JOINT LeftHandMiddle3
                {
                OFFSET 2.280 -0.000 0.000
                CHANNELS 6 Xposition Yposition Zposition Zrotation Xrotation Yrotation
                  JOINT LeftHandMiddle4
                  {
                  OFFSET 1.500 -0.000 0.000
                  CHANNELS 6 Xposition Yposition Zposition Zrotation Xrotation Yrotation
                  }
                }
              }
            }
            JOINT LeftHandRing1
            {
            OFFSET 9.250 0.670 -1.130
            CHANNELS 6 Xposition Yposition Zposition Zrotation Xrotation Yrotation
              JOINT LeftHandRing2
              {
              OFFSET 2.470 -0.000 0.000
              CHANNELS 6 Xposition Yposition Zposition Zrotation Xrotation Yrotation
                JOINT LeftHandRing3
                {
                OFFSET 2.210 -0.000 0.000
                CHANNELS 6 Xposition Yposition Zposition Zrotation Xrotation Yrotation
                  JOINT LeftHandRing4
                  {
                  OFFSET 1.800 -0.000 0.000
                  CHANNELS 6 Xposition Yposition Zposition Zrotation Xrotation Yrotation
                  }
                }
              }
            }
            JOINT LeftHandPinky1
            {
            OFFSET 9.350 0.660 -2.720
            CHANNELS 6 Xposition Yposition Zposition Zrotation Xrotation Yrotation
              JOINT LeftHandPinky2
              {
              OFFSET 1.630 -0.000 0.000
              CHANNELS 6 Xposition Yposition Zposition Zrotation Xrotation Yrotation
                JOINT LeftHandPinky3
                {
                OFFSET 1.710 -0.000 0.000
                CHANNELS 6 Xposition Yposition Zposition Zrotation Xrotation Yrotation
                  JOINT LeftHandPinky4
                  {
                  OFFSET 1.800 -0.000 0.000
                  CHANNELS 6 Xposition Yposition Zposition Zrotation Xrotation Yrotation
                  }
                }
              }
            }
          }
        }
      }
    }
    JOINT RightShoulder
    {
      OFFSET -0.000 39.427 0.000
      CHANNELS 6 Xposition Yposition Zposition Zrotation Xrotation Yrotation
      JOINT RightArm
      {
        OFFSET -20.989 0.000 -0.000
        CHANNELS 6 Xposition Yposition Zposition Zrotation Xrotation Yrotation
        JOINT RightForeArm
        {
          OFFSET -23.929 0.000 0.000
          CHANNELS 6 Xposition Yposition Zposition Zrotation Xrotation Yrotation
          JOINT RightHand
          {
            OFFSET -26.322 0.000 -0.000
            CHANNELS 6 Xposition Yposition Zposition Zrotation Xrotation Yrotation
            JOINT RightHandThumb1
            {
            OFFSET -4.970 -0.620 3.390
            CHANNELS 6 Xposition Yposition Zposition Zrotation Xrotation Yrotation
              JOINT RightHandThumb2
              {
              OFFSET -2.150 0.000 0.000
              CHANNELS 6 Xposition Yposition Zposition Zrotation Xrotation Yrotation
                JOINT RightHandThumb3
                {
                OFFSET -2.200 0.000 0.000
                CHANNELS 6 Xposition Yposition Zposition Zrotation Xrotation Yrotation
                  JOINT RightHandThumb4
                  {
                  OFFSET -1.700 0.000 0.000
                  CHANNELS 6 Xposition Yposition Zposition Zrotation Xrotation Yrotation
                  }
                }
              }
            }
            JOINT RightHandIndex1
            {
            OFFSET -8.730 0.680 2.070
            CHANNELS 6 Xposition Yposition Zposition Zrotation Xrotation Yrotation
              JOINT RightHandIndex2
              {
              OFFSET -2.670 0.000 0.000
              CHANNELS 6 Xposition Yposition Zposition Zrotation Xrotation Yrotation
                JOINT RightHandIndex3
                {
                OFFSET -2.130 0.000 0.000
                CHANNELS 6 Xposition Yposition Zposition Zrotation Xrotation Yrotation
                  JOINT RightHandIndex4
                  {
                  OFFSET -1.800 0.000 0.000
                  CHANNELS 6 Xposition Yposition Zposition Zrotation Xrotation Yrotation
                  }
                }
              }
            }
            JOINT RightHandMiddle1
            {
            OFFSET -9.220 0.670 0.550
            CHANNELS 6 Xposition Yposition Zposition Zrotation Xrotation Yrotation
              JOINT RightHandMiddle2
              {
              OFFSET -2.660 0.000 0.000
              CHANNELS 6 Xposition Yposition Zposition Zrotation Xrotation Yrotation
                JOINT RightHandMiddle3
                {
                OFFSET -2.280 0.000 0.000
                CHANNELS 6 Xposition Yposition Zposition Zrotation Xrotation Yrotation
                  JOINT RightHandMiddle4
                  {
                  OFFSET -1.500 0.000 0.000
                  CHANNELS 6 Xposition Yposition Zposition Zrotation Xrotation Yrotation
                  }
                }
              }
            }
            JOINT RightHandRing1
            {
            OFFSET -9.250 0.670 -1.130
            CHANNELS 6 Xposition Yposition Zposition Zrotation Xrotation Yrotation
              JOINT RightHandRing2
              {
              OFFSET -2.470 0.000 0.000
              CHANNELS 6 Xposition Yposition Zposition Zrotation Xrotation Yrotation
                JOINT RightHandRing3
                {
                OFFSET -2.210 0.000 0.000
                CHANNELS 6 Xposition Yposition Zposition Zrotation Xrotation Yrotation
                  JOINT RightHandRing4
                  {
                  OFFSET -1.800 0.000 0.000
                  CHANNELS 6 Xposition Yposition Zposition Zrotation Xrotation Yrotation
                  }
                }
              }
            }
            JOINT RightHandPinky1
            {
            OFFSET -9.350 0.660 -2.720
            CHANNELS 6 Xposition Yposition Zposition Zrotation Xrotation Yrotation
              JOINT RightHandPinky2
              {
              OFFSET -1.630 0.000 0.000
              CHANNELS 6 Xposition Yposition Zposition Zrotation Xrotation Yrotation
                JOINT RightHandPinky3
                {
                OFFSET -1.710 0.000 0.000
                CHANNELS 6 Xposition Yposition Zposition Zrotation Xrotation Yrotation
                  JOINT RightHandPinky4
                  {
                  OFFSET -1.800 0.000 0.000
                  CHANNELS 6 Xposition Yposition Zposition Zrotation Xrotation Yrotation
                  }
                }
              }
            }
          }
        }
      }
    }
    JOINT Neck
    {
      OFFSET -0.000 39.427 0.000
      CHANNELS 6 Xposition Yposition Zposition Zrotation Xrotation Yrotation
      JOINT Head
      {
        OFFSET -0.000 16.455 -0.000
        CHANNELS 6 Xposition Yposition Zposition Zrotation Xrotation Yrotation
        End Site
        {
          OFFSET -0.000 0.066 -0.000
        }
      }
    }
  }
}
MOTION
Frames:	6
Frame Time:	0.0333333
26.8057 25.776 -213.021 0.394304 8.77509 -4.27305 8.09021 -7.12725 2.36611 2.02432 -25.4758 -0.012547 -1.19209e-05 -46.1737 2.38419e-05 -3.52611 13.8685 4.39705e-07 1.19209e-05 -39.2128 0 3.49463 -19.7384 3.24827 -7.88198 -7.60677 2.10466 -1.20052 -14.4668 -2.69691 0 -47.479 2.38419e-05 4.61517 27.6067 1.92693e-06 -7.45058e-06 -41.6937 -3.57628e-05 -2.50387 -21.8374 -2.2155 3.72529e-06 6.08696 -6.08699 0.805916 -8.44748 -1.21584 -6.70552e-06 39.4263 -2.38419e-05 -37.8325 1.10991e-05 -1.666 21.0246 1.19209e-05 7.15256e-05 -37.4403 25.5167 6.87945 24.907 5.96046e-06 -2.38419e-05 6.51262e-06 1.70755e-06 -44.8284 27.0742 -4.17233e-05 2.38419e-05 4.31143 -0.0149444 7.41801 0.0062 0.0497 0.0339 0 0 0 0 0.0215 0 0 0 0 0 0.022 0 0 0 0 0 0.017 0 0 0 0 -0.0068 0.0873 0.0207 0 0 0 0 0.0267 0 0 0 0 0 0.0213 0 0 0 0 0 0.018 0 0 0 0 -0.0067 0.0922 0.0055 0 0 0 0 0.0266 0 0 0 0 0 0.0228 0 0 0 0 0 0.015 0 0 0 0 -0.0067 0.0925 -0.0113 0 0 0 0 0.0247 0 0 0 0 0 0.0221 0 0 0 0 0 0.018 0 0 0 0 -0.0066 0.0935 -0.0272 0 0 0 0 0.0163 0 0 0 0 0 0.0171 0 0 0 0 0 0.018 0 0 0 0 -6.70552e-06 39.4263 -2.38419e-05 32.9895 -2.98821e-06 1.68024 -20.8465 1.19209e-05 -4.76837e-05 42.3561 32.3324 -2.00812 -24.5151 1.78814e-05 2.38419e-05 -2.62848e-06 3.4151e-06 37.5842 -26.3567 -1.78814e-05 0 7.02197 0.00718386 1.56133 -0.0062 0.0497 0.0339 0 0 0 0 0.0215 0 0 0 0 0 0.022 0 0 0 0 0 0.017 0 0 0 0 0.0068 0.0873 0.0207 0 0 0 0 0.0267 0 0 0 0 0 0.0213 0 0 0 0 0 0.018 0 0 0 0 0.0067 0.0922 0.0055 0 0 0 0 0.0266 0 0 0 0 0 0.0228 0 0 0 0 0 0.015 0 0 0 0 0.0067 0.0925 -0.0113 0 0 0 0 0.0247 0 0 0 0 0 0.0221 0 0 0 0 0 0.018 0 0 0 0 0.0066 0.0935 -0.0272 0 0 0 0 0.0163 0 0 0 0 0 0.0171 0 0 0 0 0 0.018 0 0 0 0 -6.70552e-06 39.4263 -2.38419e-05 -0.381575 13.0232 0.0859888 -8.19564e-06 16.8286 0 1.01386e-05 -8.53774e-06 -4.26887e-07 
26.8057 25.776 -213.021 0.394304 8.77509 -4.27305 8.09021 -7.12725 2.36611 2.02432 -25.4758 -0.012547 -1.19209e-05 -46.1737 2.38419e-05 -3.52611 13.8685 4.39705e-07 1.19209e-05 -39.2128 0 3.49463 -19.7384 3.24827 -7.88198 -7.60677 2.10466 -1.20052 -14.4668 -2.69691 0 -47.479 2.38419e-05 4.61517 27.6067 1.92693e-06 -7.45058e-06 -41.6937 -3.57628e-05 -2.50387 -21.8374 -2.2155 3.72529e-06 6.08696 -6.08699 0.805916 -8.44748 -1.21584 -6.70552e-06 39.4263 -2.38419e-05 -37.8325 1.10991e-05 -1.666 21.0246 1.19209e-05 7.15256e-05 -37.4403 25.5167 6.87945 24.907 5.96046e-06 -2.38419e-05 6.51262e-06 1.70755e-06 -44.8284 27.0742 -4.17233e-05 2.38419e-05 4.31143 -0.0149444 7.41801 0.0062 0.0497 0.0339 0 0 0 0 0.0215 0 0 0 0 0 0.022 0 0 0 0 0 0.017 0 0 0 0 -0.0068 0.0873 0.0207 0 0 0 0 0.0267 0 0 0 0 0 0.0213 0 0 0 0 0 0.018 0 0 0 0 -0.0067 0.0922 0.0055 0 0 0 0 0.0266 0 0 0 0 0 0.0228 0 0 0 0 0 0.015 0 0 0 0 -0.0067 0.0925 -0.0113 0 0 0 0 0.0247 0 0 0 0 0 0.0221 0 0 0 0 0 0.018 0 0 0 0 -0.0066 0.0935 -0.0272 0 0 0 0 0.0163 0 0 0 0 0 0.0171 0 0 0 0 0 0.018 0 0 0 0 -6.70552e-06 39.4263 -2.38419e-05 32.9895 -2.98821e-06 1.68024 -20.8465 1.19209e-05 -4.76837e-05 42.3561 32.3324 -2.00812 -24.5151 1.78814e-05 2.38419e-05 -2.62848e-06 3.4151e-06 37.5842 -26.3567 -1.78814e-05 0 7.02197 0.00718386 1.56133 -0.0062 0.0497 0.0339 0 0 0 0 0.0215 0 0 0 0 0 0.022 0 0 0 0 0 0.017 0 0 0 0 0.0068 0.0873 0.0207 0 0 0 0 0.0267 0 0 0 0 0 0.0213 0 0 0 0 0 0.018 0 0 0 0 0.0067 0.0922 0.0055 0 0 0 0 0.0266 0 0 0 0 0 0.0228 0 0 0 0 0 0.015 0 0 0 0 0.0067 0.0925 -0.0113 0 0 0 0 0.0247 0 0 0 0 0 0.0221 0 0 0 0 0 0.018 0 0 0 0 0.0066 0.0935 -0.0272 0 0 0 0 0.0163 0 0 0 0 0 0.0171 0 0 0 0 0 0.018 0 0 0 0 -6.70552e-06 39.4263 -2.38419e-05 -0.381575 13.0232 0.0859888 -8.19564e-06 16.8286 0 1.01386e-05 -8.53774e-06 -4.26887e-07 
26.8158 25.4814 -211.273 0.751364 7.61891 -4.2205 8.1097 -7.15907 2.20921 1.49277 -24.03 0.309104 0 -45.7927 -1.19209e-05 -3.87649 13.8321 -2.19818e-06 -8.9407e-06 -39.0349 -2.38419e-05 2.34388 -14.0081 2.08137 -7.85075 -7.636 2.04294 -2.56826 -15.3451 -2.82394 7.45058e-07 -46.8918 -7.15256e-05 5.77564 31.5817 2.50552e-06 -2.98023e-06 -42.515 -2.38419e-05 -3.30896 -22.8558 -3.00546 2.98023e-06 6.12145 -6.1214 1.0188 -7.37868 -1.50684 -3.72529e-06 39.4263 -2.38419e-05 -38.6988 1.28066e-05 -1.87988 21.1202 1.19209e-05 -2.38419e-05 -36.3422 23.145 7.13068 25.1624 1.19209e-05 2.38419e-05 2.90587e-06 -6.83019e-06 -43.9058 26.5741 -1.78814e-05 -2.38419e-05 3.71397 -0.0116637 8.46347 0.0062 0.0497 0.0339 0 0 0 0 0.0215 0 0 0 0 0 0.022 0 0 0 0 0 0.017 0 0 0 0 -0.0068 0.0873 0.0207 0 0 0 0 0.0267 0 0 0 0 0 0.0213 0 0 0 0 0 0.018 0 0 0 0 -0.0067 0.0922 0.0055 0 0 0 0 0.0266 0 0 0 0 0 0.0228 0 0 0 0 0 0.015 0 0 0 0 -0.0067 0.0925 -0.0113 0 0 0 0 0.0247 0 0 0 0 0 0.0221 0 0 0 0 0 0.018 0 0 0 0 -0.0066 0.0935 -0.0272 0 0 0 0 0.0163 0 0 0 0 0 0.0171 0 0 0 0 0 0.018 0 0 0 0 -3.72529e-06 39.4263 -2.38419e-05 32.7601 -2.98821e-06 1.89476 -20.9543 1.78814e-05 -4.76837e-05 41.608 32.4618 -1.03011 -24.2057 -5.96046e-06 2.38419e-05 -3.25553e-06 0 38.1162 -26.9861 1.19209e-05 0 7.73842 0.00546441 1.4787 -0.0062 0.0497 0.0339 0 0 0 0 0.0215 0 0 0 0 0 0.022 0 0 0 0 0 0.017 0 0 0 0 0.0068 0.0873 0.0207 0 0 0 0 0.0267 0 0 0 0 0 0.0213 0 0 0 0 0 0.018 0 0 0 0 0.0067 0.0922 0.0055 0 0 0 0 0.0266 0 0 0 0 0 0.0228 0 0 0 0 0 0.015 0 0 0 0 0.0067 0.0925 -0.0113 0 0 0 0 0.0247 0 0 0 0 0 0.0221 0 0 0 0 0 0.018 0 0 0 0 0.0066 0.0935 -0.0272 0 0 0 0 0.0163 0 0 0 0 0 0.0171 0 0 0 0 0 0.018 0 0 0 0 -3.72529e-06 39.4263 -2.38419e-05 -1.41211 14.0556 0.343013 -4.47035e-06 16.7685 7.15256e-05 9.92512e-06 -1.02453e-05 4.26887e-07 
26.8158 25.4814 -211.273 0.751364 7.61891 -4.2205 8.1097 -7.15907 2.20921 1.49277 -24.03 0.309104 0 -45.7927 -1.19209e-05 -3.87649 13.8321 -2.19818e-06 -8.9407e-06 -39.0349 -2.38419e-05 2.34388 -14.0081 2.08137 -7.85075 -7.636 2.04294 -2.56826 -15.3451 -2.82394 7.45058e-07 -46.8918 -7.15256e-05 5.77564 31.5817 2.50552e-06 -2.98023e-06 -42.515 -2.38419e-05 -3.30896 -22.8558 -3.00546 2.98023e-06 6.12145 -6.1214 1.0188 -7.37868 -1.50684 -3.72529e-06 39.4263 -2.38419e-05 -38.6988 1.28066e-05 -1.87988 21.1202 1.19209e-05 -2.38419e-05 -36.3422 23.145 7.13068 25.1624 1.19209e-05 2.38419e-05 2.90587e-06 -6.83019e-06 -43.9058 26.5741 -1.78814e-05 -2.38419e-05 3.71397 -0.0116637 8.46347 0.0062 0.0497 0.0339 0 0 0 0 0.0215 0 0 0 0 0 0.022 0 0 0 0 0 0.017 0 0 0 0 -0.0068 0.0873 0.0207 0 0 0 0 0.0267 0 0 0 0 0 0.0213 0 0 0 0 0 0.018 0 0 0 0 -0.0067 0.0922 0.0055 0 0 0 0 0.0266 0 0 0 0 0 0.0228 0 0 0 0 0 0.015 0 0 0 0 -0.0067 0.0925 -0.0113 0 0 0 0 0.0247 0 0 0 0 0 0.0221 0 0 0 0 0 0.018 0 0 0 0 -0.0066 0.0935 -0.0272 0 0 0 0 0.0163 0 0 0 0 0 0.0171 0 0 0 0 0 0.018 0 0 0 0 -3.72529e-06 39.4263 -2.38419e-05 32.7601 -2.98821e-06 1.89476 -20.9543 1.78814e-05 -4.76837e-05 41.608 32.4618 -1.03011 -24.2057 -5.96046e-06 2.38419e-05 -3.25553e-06 0 38.1162 -26.9861 1.19209e-05 0 7.73842 0.00546441 1.4787 -0.0062 0.0497 0.0339 0 0 0 0 0.0215 0 0 0 0 0 0.022 0 0 0 0 0 0.017 0 0 0 0 0.0068 0.0873 0.0207 0 0 0 0 0.0267 0 0 0 0 0 0.0213 0 0 0 0 0 0.018 0 0 0 0 0.0067 0.0922 0.0055 0 0 0 0 0.0266 0 0 0 0 0 0.0228 0 0 0 0 0 0.015 0 0 0 0 0.0067 0.0925 -0.0113 0 0 0 0 0.0247 0 0 0 0 0 0.0221 0 0 0 0 0 0.018 0 0 0 0 0.0066 0.0935 -0.0272 0 0 0 0 0.0163 0 0 0 0 0 0.0171 0 0 0 0 0 0.018 0 0 0 0 -3.72529e-06 39.4263 -2.38419e-05 -1.41211 14.0556 0.343013 -4.47035e-06 16.7685 7.15256e-05 9.92512e-06 -1.02453e-05 4.26887e-07 
26.8159 25.3984 -210.767 0.865328 7.26994 -4.1412 8.11611 -7.17081 2.16203 1.29861 -23.5867 0.377121 -7.45058e-06 -45.6854 -2.38419e-05 -3.97109 13.8241 -4.39621e-07 4.47035e-06 -38.9774 -1.19209e-05 1.97449 -11.2284 1.70429 -7.84106 -7.64722 2.01733 -3.00648 -15.4596 -2.7978 1.11759e-06 -46.7154 0 6.04776 32.1993 5.04475e-07 -3.35276e-06 -42.7005 -1.19209e-05 -3.66253 -23.09 -3.34399 7.45058e-06 6.13248 -6.13246 1.10918 -7.01407 -1.58251 -4.09782e-06 39.4263 -4.76837e-05 -38.9516 1.19528e-05 -1.92081 21.1666 1.78814e-05 7.15256e-05 -36.0317 22.4895 7.11415 25.2256 1.78814e-05 -9.53674e-05 6.4975e-06 6.83019e-06 -43.5701 26.1503 -2.98023e-05 0 3.23309 -0.0185198 8.24743 0.0062 0.0497 0.0339 0 0 0 0 0.0215 0 0 0 0 0 0.022 0 0 0 0 0 0.017 0 0 0 0 -0.0068 0.0873 0.0207 0 0 0 0 0.0267 0 0 0 0 0 0.0213 0 0 0 0 0 0.018 0 0 0 0 -0.0067 0.0922 0.0055 0 0 0 0 0.0266 0 0 0 0 0 0.0228 0 0 0 0 0 0.015 0 0 0 0 -0.0067 0.0925 -0.0113 0 0 0 0 0.0247 0 0 0 0 0 0.0221 0 0 0 0 0 0.018 0 0 0 0 -0.0066 0.0935 -0.0272 0 0 0 0 0.0163 0 0 0 0 0 0.0171 0 0 0 0 0 0.018 0 0 0 0 -4.09782e-06 39.4263 -4.76837e-05 32.6949 -2.34788e-06 1.93653 -20.9947 -1.19209e-05 -2.38419e-05 41.3505 32.2372 -0.665158 -24.0783 5.96046e-06 3.57628e-05 -1.86102e-06 5.12264e-06 38.2239 -27.1313 5.96046e-06 -1.19209e-05 8.01791 0.00494184 1.56969 -0.0062 0.0497 0.0339 0 0 0 0 0.0215 0 0 0 0 0 0.022 0 0 0 0 0 0.017 0 0 0 0 0.0068 0.0873 0.0207 0 0 0 0 0.0267 0 0 0 0 0 0.0213 0 0 0 0 0 0.018 0 0 0 0 0.0067 0.0922 0.0055 0 0 0 0 0.0266 0 0 0 0 0 0.0228 0 0 0 0 0 0.015 0 0 0 0 0.0067 0.0925 -0.0113 0 0 0 0 0.0247 0 0 0 0 0 0.0221 0 0 0 0 0 0.018 0 0 0 0 0.0066 0.0935 -0.0272 0 0 0 0 0.0163 0 0 0 0 0 0.0171 0 0 0 0 0 0.018 0 0 0 0 -4.09782e-06 39.4263 -4.76837e-05 -1.89524 14.4584 0.473363 -3.72529e-07 16.7367 -2.38419e-05 9.39151e-06 -8.53774e-06 -8.53773e-07 
26.7669 25.2882 -210.01 1.09071 6.75275 -3.77305 8.11848 -7.19241 2.04315 0.912379 -22.9759 0.575514 -4.47035e-06 -45.5845 -2.38419e-05 -4.11978 13.757 -8.78989e-07 1.19209e-05 -38.8363 -1.19209e-05 1.32957 -5.14158 1.05526 -7.81967 -7.67461 1.96199 -3.65671 -14.6202 -2.38177 1.30385e-06 -46.5474 -2.38419e-05 6.35407 31.0922 1.99401e-06 2.98023e-06 -42.65 1.19209e-05 -4.10134 -23.0301 -3.75542 4.47035e-06 6.14602 -6.146 1.29459 -6.28686 -1.63579 -8.9407e-06 39.4263 -4.76837e-05 -39.3449 1.15259e-05 -1.94198 21.2788 1.19209e-05 2.38419e-05 -35.4519 20.7989 6.90351 25.1846 -5.96046e-06 2.38419e-05 6.03741e-07 -6.83019e-06 -43.2873 25.1759 2.68221e-05 -1.19209e-05 1.7468 -0.0259191 6.25735 0.0062 0.0497 0.0339 0 0 0 0 0.0215 0 0 0 0 0 0.022 0 0 0 0 0 0.017 0 0 0 0 -0.0068 0.0873 0.0207 0 0 0 0 0.0267 0 0 0 0 0 0.0213 0 0 0 0 0 0.018 0 0 0 0 -0.0067 0.0922 0.0055 0 0 0 0 0.0266 0 0 0 0 0 0.0228 0 0 0 0 0 0.015 0 0 0 0 -0.0067 0.0925 -0.0113 0 0 0 0 0.0247 0 0 0 0 0 0.0221 0 0 0 0 0 0.018 0 0 0 0 -0.0066 0.0935 -0.0272 0 0 0 0 0.0163 0 0 0 0 0 0.0171 0 0 0 0 0 0.018 0 0 0 0 -8.9407e-06 39.4263 -4.76837e-05 32.7359 -4.05543e-06 1.96027 -21.0803 1.19209e-05 7.15256e-05 40.5167 31.7262 0.105923 -23.8208 -1.78814e-05 -1.19209e-05 1.93298e-06 8.53774e-06 38.5268 -27.4038 5.96046e-06 -3.57628e-05 8.81758 0.00450804 1.91361 -0.0062 0.0497 0.0339 0 0 0 0 0.0215 0 0 0 0 0 0.022 0 0 0 0 0 0.017 0 0 0 0 0.0068 0.0873 0.0207 0 0 0 0 0.0267 0 0 0 0 0 0.0213 0 0 0 0 0 0.018 0 0 0 0 0.0067 0.0922 0.0055 0 0 0 0 0.0266 0 0 0 0 0 0.0228 0 0 0 0 0 0.015 0 0 0 0 0.0067 0.0925 -0.0113 0 0 0 0 0.0247 0 0 0 0 0 0.0221 0 0 0 0 0 0.018 0 0 0 0 0.0066 0.0935 -0.0272 0 0 0 0 0.0163 0 0 0 0 0 0.0171 0 0 0 0 0 0.018 0 0 0 0 -8.9407e-06 39.4263 -4.76837e-05 -3.22902 14.8085 0.826121 -5.21541e-06 16.6492 7.15256e-05 9.8184e-06 -1.02453e-05 8.53774e-07 
